<?xml version="1.0" standalone="no"?>
<!DOCTYPE svg PUBLIC "-//W3C//DTD SVG 20010904//EN"
 "http://www.w3.org/TR/2001/REC-SVG-20010904/DTD/svg10.dtd">
<svg version="1.0" xmlns="http://www.w3.org/2000/svg"
 width="554.000000pt" height="554.000000pt" viewBox="0 0 554.000000 554.000000"
 preserveAspectRatio="xMidYMid meet">
<metadata>
Created by potrace 1.14, written by Peter Selinger 2001-2017
</metadata>
<g transform="translate(0.000000,554.000000) scale(0.100000,-0.100000)"
fill="#000000" stroke="none">
<path d="M2925 4427 c-53 -13 -136 -67 -169 -109 -76 -100 -93 -233 -44 -340
33 -71 95 -133 167 -166 l56 -26 1160 -1 1161 0 66 33 c117 57 179 154 183
282 5 134 -61 244 -182 305 l-58 30 -1150 1 c-716 0 -1165 -3 -1190 -9z"/>
<path d="M1595 3091 c-94 -23 -172 -87 -216 -177 -28 -56 -33 -76 -32 -138 1
-98 36 -179 108 -244 101 -92 -89 -84 1978 -84 l1822 0 56 21 c75 28 138 85
174 157 27 53 30 69 30 149 0 78 -4 97 -27 140 -44 84 -109 141 -192 169 -44
14 -214 16 -1860 15 -996 -1 -1824 -4 -1841 -8z"/>
<path d="M317 1763 c-1 0 -20 -4 -42 -7 -206 -33 -327 -270 -235 -460 44 -92
137 -165 230 -182 19 -3 1146 -6 2505 -6 1876 0 2481 3 2515 12 116 30 211
128 236 243 8 38 5 125 -6 166 -14 53 -68 129 -119 168 -92 71 116 66 -2619
67 -1355 1 -2464 0 -2465 -1z"/>
</g>
</svg>
